<svg width="7" height="12" viewBox="0 0 7 12" fill="none" xmlns="http://www.w3.org/2000/svg">
<path d="M4.26032 11.5436V10.9128C5.85637 10.6711 7 9.54362 7 8.01342C7 6.33557 5.85637 5.38255 3.60682 4.95302C2.45063 4.73826 1.93537 4.37584 1.93537 3.8255C1.93537 3.16779 2.51346 2.73825 3.43088 2.73825C4.27289 2.73825 4.97666 3.07383 5.61759 3.63758C5.70557 3.7047 5.79354 3.74497 5.89407 3.74497C6.01975 3.74497 6.13285 3.69128 6.22083 3.58389L6.72352 2.9396C6.78636 2.84564 6.82406 2.75168 6.82406 2.6443C6.82406 2.51007 6.77379 2.38926 6.67325 2.2953C5.94434 1.66443 5.14004 1.2349 4.26032 1.08725V0.456376C4.26032 0.201342 4.07181 0 3.83303 0H2.99102C2.73968 0 2.55117 0.201342 2.55117 0.456376V1.12752C1.1939 1.43624 0.138241 2.4698 0.138241 3.83893C0.138241 5.31544 1.10592 6.32215 2.95332 6.65772C4.52424 6.9396 5.21544 7.27517 5.21544 8.01342C5.21544 8.79195 4.52424 9.27517 3.45601 9.27517C2.5386 9.27517 1.9228 8.96644 1.21903 8.33557C1.13106 8.26846 1.03052 8.22819 0.929982 8.22819C0.578097 8.22819 0 9.10067 0 9.31544C0 9.44966 0.0628366 9.59732 0.163375 9.69128C0.804309 10.3356 1.58348 10.7651 2.55117 10.9128V11.5436C2.55117 11.7852 2.73968 12 2.99102 12H3.83303C4.07181 12 4.26032 11.7852 4.26032 11.5436Z" fill="#55586F"/>
</svg>
