<svg width="9" height="8" viewBox="0 0 9 8" fill="none" xmlns="http://www.w3.org/2000/svg">
<path d="M4.55736 5.74797L4.76805 5.30222L4.06575 1.64243C3.85506 0.610186 4.11257 0.164443 4.90851 0.0236816V0.0236816H4.15939C3.9487 0.140983 3.4805 0.445965 3.73801 1.66589L4.55736 5.74797Z" fill="#8EC089"/>
<path d="M4.13636 6.63945L4.34705 6.19371L3.41065 1.64243C3.22337 0.750948 3.31701 0.305204 3.59793 0.0471419V0.0236816H3.08291C2.91904 0.352124 2.87222 0.680567 3.0595 1.57205L4.13636 6.63945Z" fill="#E85F24"/>
<path d="M3.71476 7.50726L3.92545 7.06152L2.75495 1.52491C2.54426 0.656885 2.59108 0.281522 2.68472 0H2.23993C2.23993 0.469204 2.28675 0.938408 2.42721 1.38415L3.71476 7.50726Z" fill="#1C4695"/>
<path d="M1.81853 0.0236816H1.30351V0.0471419C1.53761 0.328664 1.60784 0.680567 1.79512 1.45475L3.19972 7.97669H3.52746L2.12286 1.43129C1.9824 0.962089 1.88876 0.492885 1.81853 0.0236816Z" fill="#245ABC"/>
<path d="M0.765026 0.0236816H0.203186V0.0471419C0.718206 0.258284 0.975716 0.633647 1.18641 1.57205L2.5676 8.00014H2.89534L1.49074 1.50167C1.23323 0.375584 0.975716 0.164443 0.765026 0.0236816Z" fill="#318EEE"/>
<path d="M7.95218 0.0236816C7.27329 0.399045 6.87532 1.12631 6.05597 2.90928H6.07938C7.03919 1.10285 7.57762 0.399045 8.81835 0.0236816V0.0236816H7.95218Z" fill="#1C4695"/>
<path d="M6.00897 2.88582C6.82832 1.03247 7.0156 0.516346 7.34334 0.0471419V0.0236816H6.71127V0.0471419C6.7815 0.774408 6.52399 1.45475 6.00897 2.88582Z" fill="#E85F24"/>
<path d="M5.96196 2.83868C6.47698 1.19647 6.64085 0.445744 6.19606 0H5.5874V0.0234602C6.2897 0.281522 6.43016 0.985328 5.96196 2.83868Z" fill="#8EC089"/>
</svg>
