<svg width="11" height="11" viewBox="0 0 11 11" fill="none" xmlns="http://www.w3.org/2000/svg">
<path fill-rule="evenodd" clip-rule="evenodd" d="M9.88156 7.53109C9.9896 7.79489 10.0589 8.07574 10.0622 8.36016C10.067 8.6378 10.0142 8.91358 9.90692 9.17146C9.74037 9.57111 9.45096 9.91254 9.07724 10.1503C8.65471 10.4194 8.13309 10.5392 7.62965 10.4887C7.16612 10.4467 6.72541 10.2699 6.33889 10.0257C5.93867 9.77497 5.59197 9.45508 5.26801 9.11984C4.91962 9.47878 4.54545 9.82164 4.10795 10.0794C3.71577 10.3128 3.2688 10.4727 2.80526 10.4963C2.45823 10.5154 2.11136 10.4564 1.79222 10.3242C1.38397 10.1553 1.03372 9.86279 0.800386 9.49988C0.529687 9.0821 0.418516 8.57145 0.49604 8.08491C0.537887 7.79676 0.649058 7.52378 0.77198 7.25981C1.06838 6.62619 1.37653 5.99769 1.6873 5.37024C2.20865 4.32176 2.7465 3.28093 3.30067 2.24809C3.32142 2.20955 3.3421 2.17097 3.36279 2.13238C3.45574 1.959 3.54877 1.78549 3.6478 1.61512C3.76514 1.4143 3.90057 1.22022 4.07557 1.06105C4.37045 0.785068 4.77159 0.619479 5.18254 0.599998H5.36634C5.76554 0.623863 6.15451 0.782064 6.4444 1.04741C6.62607 1.2091 6.76641 1.40797 6.88697 1.61455C6.98317 1.78064 7.07386 1.94957 7.16455 2.11849C7.1895 2.16496 7.21444 2.21142 7.2395 2.25783C8.06538 3.79726 8.85471 5.35452 9.60689 6.92839C9.62024 6.9566 9.63364 6.98478 9.64705 7.01298C9.72849 7.1843 9.80998 7.35572 9.88156 7.53109ZM4.93854 7.74636C5.04438 7.89163 5.15052 8.0373 5.27013 8.1725C5.64151 7.71258 5.98492 7.22247 6.20185 6.67571C6.31674 6.38106 6.39156 6.06376 6.35394 5.74785C6.32519 5.51018 6.21098 5.27892 6.01975 5.12251C5.64194 4.80911 5.04762 4.78118 4.63066 5.03955C4.45566 5.14661 4.31753 5.30863 4.24567 5.49565C4.16535 5.69508 4.15918 5.91425 4.18497 6.12432C4.2203 6.38909 4.31085 6.64405 4.42362 6.88691C4.56126 7.17962 4.73237 7.45665 4.92055 7.72167C4.92655 7.7299 4.93255 7.73813 4.93854 7.74636ZM8.63163 9.7205C8.98205 9.53438 9.24987 9.21181 9.3613 8.84256C9.44347 8.57226 9.44085 8.27972 9.36164 8.00886C9.30619 7.82105 9.22282 7.64286 9.13962 7.46505C9.12551 7.4349 9.11141 7.40476 9.09745 7.37459C8.46023 6.03488 7.79556 4.70738 7.10381 3.39284L7.08493 3.35703C6.84885 2.90919 6.61259 2.46104 6.36687 2.01789C6.25528 1.81788 6.131 1.61723 5.94704 1.47055C5.7608 1.32031 5.51876 1.23419 5.27528 1.23695C5.03836 1.23278 4.80712 1.30678 4.62018 1.44661C4.4473 1.57275 4.32496 1.74913 4.2198 1.92876C4.11335 2.11298 4.01302 2.30047 3.91271 2.48793C3.8916 2.52737 3.8705 2.56681 3.84934 2.60621C3.0331 4.12945 2.25262 5.67011 1.5085 7.22702C1.48796 7.27087 1.46714 7.31464 1.44632 7.35842C1.3585 7.54311 1.27056 7.72804 1.20229 7.9203C1.10076 8.20772 1.08182 8.52453 1.16721 8.81797C1.27889 9.21741 1.57495 9.5649 1.96054 9.7494C2.28974 9.90931 2.67702 9.94778 3.03598 9.87043C3.47998 9.77822 3.87191 9.53592 4.21447 9.25759C4.4354 9.07625 4.64187 8.87926 4.83212 8.66829C4.41018 8.16819 4.02814 7.62906 3.76784 7.03343C3.59276 6.62579 3.47702 6.18341 3.51667 5.73997C3.54246 5.43209 3.65363 5.12851 3.84866 4.88159C4.07024 4.59839 4.39361 4.39408 4.74767 4.29789C5.12311 4.19513 5.5322 4.20641 5.90021 4.33263C6.29417 4.46575 6.63783 4.74092 6.82965 5.09913C6.97616 5.36724 7.03516 5.6739 7.02629 5.97504C7.01056 6.44965 6.84495 6.90696 6.627 7.32905C6.37727 7.81104 6.05035 8.25196 5.70331 8.6734C5.92312 8.90498 6.15256 9.12966 6.40737 9.32626C6.75407 9.59445 7.1542 9.82164 7.60015 9.88828C7.95032 9.94445 8.32103 9.88731 8.63163 9.7205Z" fill="#FF5A5F"/>
</svg>
