<svg width="7" height="9" viewBox="0 0 7 9" fill="none" xmlns="http://www.w3.org/2000/svg">
<path d="M5.91823 3.05547H5.53434V2.2777C5.53434 1.20436 4.67444 0.333252 3.61492 0.333252C2.55539 0.333252 1.69549 1.20436 1.69549 2.2777V3.05547H1.31161C0.889335 3.05547 0.543839 3.40547 0.543839 3.83325V7.72214C0.543839 8.14992 0.889335 8.49992 1.31161 8.49992H5.91823C6.3405 8.49992 6.686 8.14992 6.686 7.72214V3.83325C6.686 3.40547 6.3405 3.05547 5.91823 3.05547ZM3.61492 6.55547C3.19264 6.55547 2.84715 6.20547 2.84715 5.7777C2.84715 5.34992 3.19264 4.99992 3.61492 4.99992C4.03719 4.99992 4.38269 5.34992 4.38269 5.7777C4.38269 6.20547 4.03719 6.55547 3.61492 6.55547ZM4.80496 3.05547H2.42487V2.2777C2.42487 1.6127 2.95847 1.07214 3.61492 1.07214C4.27136 1.07214 4.80496 1.6127 4.80496 2.2777V3.05547Z" fill="#55586F"/>
</svg>
