<svg width="6" height="8" viewBox="0 0 6 8" fill="none" xmlns="http://www.w3.org/2000/svg">
<path d="M3.11763 6.09524C3.51248 6.09524 3.83554 5.75238 3.83554 5.33333C3.83554 4.91429 3.51248 4.57143 3.11763 4.57143C2.72278 4.57143 2.39971 4.91429 2.39971 5.33333C2.39971 5.75238 2.72278 6.09524 3.11763 6.09524ZM5.27137 2.66667H4.91242V1.90476C4.91242 0.853333 4.10835 0 3.11763 0C2.12691 0 1.32284 0.853333 1.32284 1.90476H2.00486C2.00486 1.25333 2.50381 0.72381 3.11763 0.72381C3.73145 0.72381 4.2304 1.25333 4.2304 1.90476V2.66667H0.963886C0.569033 2.66667 0.245972 3.00952 0.245972 3.42857V7.2381C0.245972 7.65714 0.569033 8 0.963886 8H5.27137C5.66623 8 5.98929 7.65714 5.98929 7.2381V3.42857C5.98929 3.00952 5.66623 2.66667 5.27137 2.66667ZM5.27137 7.2381H0.963886V3.42857H5.27137V7.2381Z" fill="#55586F"/>
</svg>
