<svg width="15" height="12" viewBox="0 0 15 12" fill="none" xmlns="http://www.w3.org/2000/svg">
<path d="M12.2727 2.8125L9.54545 5.625H11.5909C11.5909 7.95234 9.75682 9.84375 7.5 9.84375C6.81136 9.84375 6.15682 9.66797 5.59091 9.35156L4.59545 10.3781C5.43409 10.9266 6.42955 11.25 7.5 11.25C10.5136 11.25 12.9545 8.73281 12.9545 5.625H15L12.2727 2.8125ZM3.40909 5.625C3.40909 3.29766 5.24318 1.40625 7.5 1.40625C8.18864 1.40625 8.84318 1.58203 9.40909 1.89844L10.4045 0.871875C9.56591 0.323437 8.57045 0 7.5 0C4.48636 0 2.04545 2.51719 2.04545 5.625H0L2.72727 8.4375L5.45455 5.625H3.40909Z" fill="#55586F"/>
</svg>
