<svg width="7" height="9" viewBox="0 0 7 9" fill="none" xmlns="http://www.w3.org/2000/svg">
<path d="M5.88118 3.05557H5.48014V2.27779C5.48014 1.20445 4.58181 0.333344 3.47493 0.333344C2.36806 0.333344 1.46973 1.20445 1.46973 2.27779V3.05557H1.06868C0.627539 3.05557 0.266602 3.40557 0.266602 3.83334V7.72223C0.266602 8.15001 0.627539 8.50001 1.06868 8.50001H5.88118C6.32233 8.50001 6.68327 8.15001 6.68327 7.72223V3.83334C6.68327 3.40557 6.32233 3.05557 5.88118 3.05557ZM3.47493 6.55557C3.03379 6.55557 2.67285 6.20557 2.67285 5.77779C2.67285 5.35001 3.03379 5.00001 3.47493 5.00001C3.91608 5.00001 4.27702 5.35001 4.27702 5.77779C4.27702 6.20557 3.91608 6.55557 3.47493 6.55557ZM4.71816 3.05557H2.23171V2.27779C2.23171 1.61279 2.78915 1.07223 3.47493 1.07223C4.16072 1.07223 4.71816 1.61279 4.71816 2.27779V3.05557Z" fill="#55586F"/>
</svg>
