<svg width="7" height="9" viewBox="0 0 7 9" fill="none" xmlns="http://www.w3.org/2000/svg">
<path fill-rule="evenodd" clip-rule="evenodd" d="M5.28189 4.09339C5.22815 4.06672 5.17441 4.04005 5.12067 3.98672C5.14754 3.96005 5.20128 3.93339 5.22815 3.90672C5.3625 3.80005 5.46997 3.69339 5.57745 3.56005C5.87301 3.16005 5.98049 2.73339 5.95362 2.25339C5.92675 1.56005 5.60432 1.05339 4.98633 0.706719C4.55642 0.466719 4.09964 0.386719 3.61599 0.386719C2.97113 0.386719 2.35313 0.386719 1.70827 0.386719C1.43958 0.386719 1.25149 0.493385 1.06341 0.706719C0.982799 0.786719 0.92906 0.920052 0.902191 1.05339C0.902191 3.37339 0.902191 5.72005 0.902191 8.04005C0.92906 8.04005 0.95593 8.04005 0.982799 8.04005C1.86949 8.04005 2.7293 8.04005 3.61599 8.04005C3.99216 8.04005 4.36833 7.98672 4.71763 7.85339C5.25502 7.66672 5.68493 7.37339 5.95362 6.86672C6.22232 6.38672 6.30292 5.85339 6.16858 5.29339C6.08797 4.78672 5.79241 4.36005 5.28189 4.09339V4.09339ZM2.38018 2.76007C2.38018 2.76007 2.40705 2.76007 2.38018 2.76007C2.38018 2.54674 2.38018 2.33341 2.38018 2.12007C2.38018 1.82674 2.5414 1.66674 2.83696 1.64007C3.13252 1.61341 3.42808 1.61341 3.72364 1.66674C4.09982 1.72007 4.34164 1.96007 4.39538 2.30674C4.44912 2.62674 4.42225 2.92007 4.20729 3.18674C4.04608 3.40007 3.80425 3.48007 3.56243 3.48007C3.18626 3.48007 2.81009 3.48007 2.43392 3.48007C2.38018 3.48007 2.38018 3.45341 2.38018 3.42674C2.40705 3.18674 2.38018 2.97341 2.38018 2.76007V2.76007ZM4.50286 6.38665C4.31477 6.62665 4.04608 6.73332 3.75051 6.73332C3.32061 6.73332 2.86383 6.73332 2.43392 6.73332C2.38018 6.73332 2.38018 6.70665 2.38018 6.67999C2.38018 6.41332 2.38018 6.14665 2.38018 5.87999V5.87999C2.38018 5.63999 2.38018 5.37332 2.38018 5.13332C2.38018 4.81332 2.56826 4.65332 2.86383 4.65332C3.13252 4.65332 3.42808 4.65332 3.69678 4.65332C4.04608 4.65332 4.34164 4.78665 4.55659 5.10665C4.79842 5.47999 4.77155 6.06665 4.50286 6.38665V6.38665Z" fill="#2E3C82"/>
</svg>
