<svg width="8" height="11" viewBox="0 0 8 11" fill="none" xmlns="http://www.w3.org/2000/svg">
<path d="M6.07829 5.4422C6.00862 5.40736 5.93894 5.37253 5.86927 5.30286C5.90411 5.26802 5.97378 5.23318 6.00862 5.19835C6.1828 5.059 6.32214 4.91966 6.46148 4.74548C6.84468 4.22294 6.98402 3.66556 6.94919 3.03852C6.91435 2.13278 6.49632 1.4709 5.69509 1.01803C5.13772 0.704505 4.54551 0.599998 3.91846 0.599998C3.0824 0.599998 2.28117 0.599998 1.4451 0.599998C1.09674 0.599998 0.852894 0.739341 0.609042 1.01803C0.504534 1.15737 0.43486 1.33156 0.400024 1.50574C0.400024 4.53647 0.400024 7.60203 0.400024 10.6328C0.43486 10.6328 0.469697 10.6328 0.504533 10.6328C1.65412 10.6328 2.80371 10.6328 3.91846 10.6328C4.40616 10.6328 4.89386 10.5631 5.34673 10.3889C6.04345 10.1451 6.60083 9.76186 6.94919 9.09997C7.29755 8.47293 7.40206 7.77621 7.22788 7.04465C7.12337 6.34793 6.74017 5.79056 6.07829 5.4422ZM2.316 3.7004C2.35084 3.7004 2.35084 3.7004 2.316 3.7004C2.316 3.42171 2.316 3.14302 2.316 2.86434C2.316 2.48114 2.52502 2.27212 2.90821 2.23729C3.29141 2.20245 3.67461 2.20245 4.0578 2.27213C4.54551 2.3418 4.85903 2.65532 4.9287 3.10819C4.99837 3.52622 4.96354 3.90942 4.68485 4.25778C4.47583 4.53646 4.16231 4.64097 3.84878 4.64097C3.36108 4.64097 2.87338 4.64097 2.38567 4.64097C2.316 4.64097 2.316 4.60613 2.316 4.5713C2.35084 4.29261 2.316 3.97909 2.316 3.7004ZM5.06804 8.47293C4.82419 8.78646 4.47584 8.92579 4.09264 8.92579C3.53526 8.92579 2.94305 8.92579 2.38567 8.92579C2.316 8.92579 2.316 8.89096 2.316 8.85612C2.316 8.50776 2.316 8.1594 2.316 7.81104C2.316 7.49752 2.316 7.14916 2.316 6.83564C2.316 6.4176 2.55986 6.20859 2.94305 6.20859C3.29141 6.20859 3.6746 6.20859 4.02296 6.20859C4.47583 6.20859 4.85903 6.38277 5.13772 6.8008C5.45124 7.25367 5.4164 8.02006 5.06804 8.47293Z" fill="#004582"/>
</svg>
