<svg width="11" height="3" viewBox="0 0 11 3" fill="none" xmlns="http://www.w3.org/2000/svg">
<path d="M1.148 2.296C1.806 2.296 2.324 1.778 2.324 1.148C2.324 0.518001 1.806 0 1.148 0C0.532 0 0 0.518001 0 1.148C0 1.778 0.532 2.296 1.148 2.296Z" fill="#9A9BA9"/>
<path d="M5.22222 2.296C5.88022 2.296 6.39822 1.778 6.39822 1.148C6.39822 0.518001 5.88022 0 5.22222 0C4.60622 0 4.07422 0.518001 4.07422 1.148C4.07422 1.778 4.60622 2.296 5.22222 2.296Z" fill="#9A9BA9"/>
<path d="M9.29644 2.296C9.95444 2.296 10.4724 1.778 10.4724 1.148C10.4724 0.518001 9.95444 0 9.29644 0C8.68044 0 8.14844 0.518001 8.14844 1.148C8.14844 1.778 8.68044 2.296 9.29644 2.296Z" fill="#9A9BA9"/>
</svg>
