<svg width="17" height="16" viewBox="0 0 17 16" fill="none" xmlns="http://www.w3.org/2000/svg">
<path d="M8.82629 3.98122V7.21127H12.0188V8.78873H8.82629V12.0188H7.21127V8.78873H4.01878V7.21127H7.21127V3.98122H8.82629ZM2.32864 2.3662C3.9061 0.788732 5.79656 0 8 0C10.2034 0 12.0939 0.788732 13.6714 2.3662C15.2488 3.91862 16.0376 5.79656 16.0376 8C16.0376 10.2034 15.2488 12.0939 13.6714 13.6714C12.0939 15.2238 10.2034 16 8 16C5.79656 16 3.9061 15.2238 2.32864 13.6714C0.776213 12.0939 0 10.2034 0 8C0 5.79656 0.776213 3.91862 2.32864 2.3662ZM3.49296 12.5446C4.74491 13.7966 6.24726 14.4225 8 14.4225C9.77778 14.4225 11.2926 13.7966 12.5446 12.5446C13.7966 11.2926 14.4225 9.77778 14.4225 8C14.4225 6.22222 13.7966 4.70736 12.5446 3.4554C11.2926 2.20344 9.77778 1.57746 8 1.57746C6.24726 1.57746 4.74491 2.20344 3.49296 3.4554C2.241 4.70736 1.61502 6.22222 1.61502 8C1.61502 9.77778 2.241 11.2926 3.49296 12.5446Z" fill="#2A2C37"/>
</svg>
