<svg width="8" height="11" viewBox="0 0 8 11" fill="none" xmlns="http://www.w3.org/2000/svg">
<path d="M0.406006 4.704C0.406006 4.746 0.391998 4.774 0.391998 4.816C0.391998 5.334 1.21801 5.656 1.54001 5.656C1.72201 5.656 1.876 5.53 2.03 5.39C2.352 5.096 2.68801 4.984 3.34601 4.984C4.29801 4.984 5.11 5.656 5.11 6.678C5.11 7.714 4.32601 8.456 3.40201 8.456C2.64601 8.456 2.128 8.064 1.75 7.476C1.638 7.322 1.47001 7.224 1.31601 7.224C1.23201 7.224 1.16201 7.238 1.09201 7.28L0.251999 7.7C0.0839989 7.784 0 7.966 0 8.12C0 8.204 0.0139998 8.274 0.0559998 8.344C0.42 9.1 1.35801 10.248 3.40201 10.248C5.47401 10.248 7.084 8.722 7.084 6.692C7.084 4.606 5.50201 3.178 3.45801 3.178C3.12201 3.178 2.8 3.234 2.492 3.304C2.534 2.814 2.59001 2.282 2.64601 1.792H6.25801C6.51001 1.792 6.73401 1.568 6.73401 1.316V0.476C6.73401 0.21 6.51001 0 6.25801 0H1.37201C1.09201 0 0.867996 0.21 0.839996 0.504C0.685996 1.904 0.546006 3.304 0.406006 4.704Z" fill="#9A9BA9"/>
</svg>
