<svg width="8" height="11" viewBox="0 0 8 11" fill="none" xmlns="http://www.w3.org/2000/svg">
<path d="M2.57699 7.63C2.45099 7.392 2.17098 7.294 1.93298 7.42L1.09299 7.854C0.840986 7.98 0.756987 8.26 0.868987 8.512C1.26099 9.268 2.14298 10.416 4.06098 10.416C5.97898 10.416 7.53298 9.002 7.53298 7.182C7.53298 6.104 7.09899 5.18 6.27299 4.648C6.74899 4.228 7.08498 3.612 7.08498 2.758C7.08498 1.218 5.78299 0 4.07499 0C2.45099 0 1.62498 0.98 1.24698 1.694C1.12098 1.946 1.20498 2.226 1.44298 2.352L2.24098 2.8C2.47898 2.94 2.74499 2.856 2.88499 2.604C3.02499 2.338 3.47299 1.806 4.07499 1.806C4.66299 1.806 5.12498 2.24 5.12498 2.814C5.12498 3.43 4.60698 3.948 3.94898 3.948H3.37498C3.10898 3.948 2.89899 4.144 2.89899 4.424V5.194C2.89899 5.46 3.10898 5.67 3.37498 5.67H4.07499C4.90099 5.67 5.57298 6.23 5.57298 7.098C5.57298 7.994 4.88698 8.624 4.06098 8.624C3.40298 8.624 2.89899 8.232 2.57699 7.63Z" fill="#9A9BA9"/>
</svg>
