<svg width="5" height="11" viewBox="0 0 5 11" fill="none" xmlns="http://www.w3.org/2000/svg">
<path d="M4.97584 0.476C4.97584 0.21 4.76584 0 4.48584 0H4.00984C3.50584 0 3.33784 0.0979996 2.87584 0.462L0.257844 2.814C0.145844 2.912 0.0898438 3.052 0.0898438 3.178C0.0898438 3.29 0.131844 3.388 0.201844 3.472L0.733844 4.13C0.831844 4.242 0.957844 4.298 1.09784 4.298C1.19584 4.298 1.30784 4.256 1.39184 4.186C1.93784 3.724 2.46984 3.276 3.01584 2.8V9.604C3.01584 9.87 3.21184 10.08 3.49184 10.08H4.48584C4.76584 10.08 4.97584 9.87 4.97584 9.604V0.476Z" fill="#1FA7AF"/>
</svg>
