<svg width="8" height="11" viewBox="0 0 8 11" fill="none" xmlns="http://www.w3.org/2000/svg">
<path d="M0.990562 2.548C0.976562 2.604 0.976562 2.646 0.976562 2.688C0.976562 3.164 1.94256 3.472 2.30656 3.472C2.51656 3.472 2.71256 3.332 2.78256 3.136C3.03456 2.352 3.70656 1.806 4.40656 1.806C5.23256 1.806 5.84856 2.408 5.84856 3.206C5.84856 3.584 5.76456 3.934 5.41456 4.256L1.25657 8.414C1.10256 8.54 0.976562 8.722 0.976562 8.946V9.772C0.976562 10.052 1.20056 10.248 1.46656 10.248H7.33256C7.59856 10.248 7.82256 10.052 7.82256 9.772V8.932C7.82256 8.666 7.59856 8.456 7.33256 8.456H3.94456L6.59056 5.838C7.44456 5.054 7.82256 4.186 7.82256 3.192C7.82256 1.386 6.36656 0 4.40656 0C2.61456 0 1.31256 1.148 0.990562 2.548Z" fill="#9A9BA9"/>
</svg>
