<svg width="9" height="8" viewBox="0 0 9 8" fill="none" xmlns="http://www.w3.org/2000/svg">
<path d="M4.54867 5.74797L4.76877 5.30222L4.03509 1.64243C3.81498 0.610186 4.084 0.164443 4.91551 0.0236816V0.0236816H4.13291C3.9128 0.140983 3.42368 0.445965 3.6927 1.66589L4.54867 5.74797Z" fill="#8EC089"/>
<path d="M4.10877 6.63945L4.32888 6.19371L3.35063 1.64243C3.15498 0.750948 3.2528 0.305204 3.54628 0.0471419V0.0236816H3.00824C2.83705 0.352124 2.78814 0.680567 2.98379 1.57205L4.10877 6.63945Z" fill="#E85F24"/>
<path d="M3.66843 7.50726L3.88854 7.06152L2.66572 1.52491C2.44562 0.656885 2.49453 0.281522 2.59235 0H2.12769C2.12769 0.469204 2.1766 0.938408 2.32334 1.38415L3.66843 7.50726Z" fill="#1C4695"/>
<path d="M1.68739 0.0236816H1.14935V0.0471419C1.39392 0.328664 1.46728 0.680567 1.66293 1.45475L3.13031 7.97669H3.4727L2.00532 1.43129C1.85858 0.962089 1.76076 0.492885 1.68739 0.0236816Z" fill="#245ABC"/>
<path d="M0.58695 0.0236816H0V0.0471419C0.538038 0.258284 0.807056 0.633647 1.02716 1.57205L2.47008 8.00014H2.81247L1.34509 1.50167C1.07608 0.375584 0.807056 0.164443 0.58695 0.0236816Z" fill="#318EEE"/>
<path d="M8.09521 0.0236816C7.38598 0.399045 6.97023 1.12631 6.11426 2.90928H6.13871C7.14142 1.10285 7.70391 0.399045 9.00009 0.0236816V0.0236816H8.09521Z" fill="#1C4695"/>
<path d="M6.06512 2.88582C6.92109 1.03247 7.11674 0.516346 7.45913 0.0471419V0.0236816H6.79881V0.0471419C6.87218 0.774408 6.60316 1.45475 6.06512 2.88582Z" fill="#E85F24"/>
<path d="M6.01615 2.83868C6.55419 1.19647 6.72538 0.445744 6.26071 0H5.62485V0.0234602C6.35853 0.281522 6.50527 0.985328 6.01615 2.83868Z" fill="#8EC089"/>
</svg>
