<svg width="147" height="167" viewBox="0 0 147 167" fill="none" xmlns="http://www.w3.org/2000/svg">
<mask id="mask0" mask-type="alpha" maskUnits="userSpaceOnUse" x="0" y="0" width="147" height="167">
<path fill-rule="evenodd" clip-rule="evenodd" d="M147 20C147 8.9543 138.046 0 127 0H20C8.9543 0 3.57628e-07 8.95431 3.57628e-07 20V147C3.57628e-07 158.046 8.95431 167 20 167H127C138.046 167 147 158.046 147 147V20Z" fill="white"/>
</mask>
<g mask="url(#mask0)">
<path d="M80.4016 113.39C80.4016 113.39 77.2668 123.602 69.1448 122.351C61.0227 121.1 51.7904 126.106 53.5274 126.828C55.1998 127.536 58.0757 127.087 58.6662 128.707C59.2567 130.328 36.9745 157.29 68.5891 166.901C103.801 170.61 98.3886 115.667 98.3886 115.667L80.4016 113.39Z" fill="#393087"/>
<rect width="34.3333" height="77.9459" rx="17.1667" transform="matrix(-0.993837 -0.110848 -0.110848 0.993837 92.2522 141.112)" fill="#6BEFF7"/>
<path d="M17.4486 141.945C18.5318 141.779 19.2756 140.767 19.11 139.684C18.9444 138.6 17.9321 137.857 16.8489 138.022C15.7657 138.188 15.0219 139.2 15.1875 140.283C15.3531 141.367 16.3654 142.11 17.4486 141.945Z" fill="#393087"/>
<path d="M31.3258 142.566C32.409 142.4 33.1529 141.388 32.9872 140.305C32.8216 139.222 31.8093 138.478 30.7261 138.643C29.6429 138.809 28.8991 139.821 29.0647 140.905C29.2303 141.988 30.2427 142.732 31.3258 142.566Z" fill="#393087"/>
<path d="M74.6615 43.1004C74.6615 43.1004 93.1666 22.1444 118.311 36.6191C144.056 53.5005 123.007 89.4614 146.088 106.458C169.169 123.455 160.704 150.108 141.128 157.713C121.552 165.253 105.348 132.516 105.348 132.516L74.6615 43.1004Z" fill="#393087"/>
<path d="M119.633 93.3636L113.02 81.7899V78.6815C112.888 78.6815 112.821 78.7477 112.689 78.7477C112.689 78.7477 99.925 77.2927 97.478 59.3038L67.1879 60.8911L65.9975 64.3962C65.9975 64.3962 60.4421 88.9325 67.1879 105.863C74.6614 119.297 85.8381 122.397 90.5999 122.066C91.7242 122 90.137 127.423 88.3513 134.434C88.3513 134.434 98.47 142.899 115.401 130.929C115.401 130.929 112.888 122.86 114.409 117.106C115.996 111.352 119.501 93.3636 119.633 93.3636Z" fill="#6BEFF7"/>
<path d="M78.6295 79.4087C80.7458 81.3928 85.706 91.4454 82.0685 95.6119C78.4311 99.8446 72.0159 93.2311 75.8518 90.3211C79.6876 87.345 76.1825 77.0279 78.6295 79.4087Z" fill="#F58591"/>
<path d="M91.5406 83.8635C93.1843 83.8635 94.5167 81.3466 94.5167 78.2419C94.5167 75.1373 93.1843 72.6204 91.5406 72.6204C89.897 72.6204 88.5645 75.1373 88.5645 78.2419C88.5645 81.3466 89.897 83.8635 91.5406 83.8635Z" fill="#393087"/>
<path d="M72.1485 84.8981C73.5365 84.8981 74.6617 82.6181 74.6617 79.8056C74.6617 76.9932 73.5365 74.7132 72.1485 74.7132C70.7605 74.7132 69.6354 76.9932 69.6354 79.8056C69.6354 82.6181 70.7605 84.8981 72.1485 84.8981Z" fill="#393087"/>
<path d="M72.1486 74.647C72.1486 74.647 68.445 73.1258 68.5772 73.9195C68.7095 74.7131 69.6354 75.5729 69.6354 75.5729C69.6354 75.5729 68.5111 75.7713 68.974 76.3003C69.437 76.8294 70.3629 77.4908 70.3629 77.4908L72.1486 74.647Z" fill="#393087"/>
<path d="M91.6034 73.5772C91.6034 73.5772 95.307 72.0561 95.1747 72.8497C95.0424 73.6434 94.1165 74.5031 94.1165 74.5031C94.1165 74.5031 95.2409 74.7015 94.7779 75.2306C94.315 75.7597 93.3891 76.4211 93.3891 76.4211L91.6034 73.5772Z" fill="#393087"/>
<path d="M87.4759 66.6212C87.4759 66.6212 96.0416 64.0871 98.1134 69.6915L98.99 69.2805C98.99 69.2805 96.542 63.1219 90.5219 64.1284C84.5018 65.1349 87.0434 64.0267 87.4759 66.6212Z" fill="#393087"/>
<path d="M74.4273 67.326C74.4273 67.326 68.123 65.547 67.897 70.8845L67.2223 70.5609C67.2223 70.5609 67.5443 64.699 71.7993 65.2356C76.0542 65.7723 74.1989 64.8825 74.4273 67.326Z" fill="#393087"/>
<path d="M75.8517 102.953C75.8517 102.953 84.9123 103.879 89.2111 100.77C89.2111 100.77 84.0525 111.947 75.8517 102.953Z" fill="#393087"/>
<path d="M88.3515 134.433C88.3515 134.433 79.6216 132.053 71.4869 146.867C63.3523 161.681 50.2574 181.588 54.0272 190.384C57.7969 199.18 59.318 203.281 61.6989 213.267L61.3682 221.468H141.128L153.959 150.297C153.959 150.297 122.477 131.391 115.401 130.862C115.401 130.928 100.256 141.774 88.3515 134.433Z" fill="#7E76C1"/>
<path d="M90.6003 122C90.6003 122 99.9254 122 105.349 114.461V132.45H88.8808C88.8808 132.45 91.1955 125.307 90.6003 122Z" fill="url(#paint0_linear)"/>
<path d="M119.633 93.3632C124.308 93.3632 128.098 89.5731 128.098 84.8978C128.098 80.2225 124.308 76.4325 119.633 76.4325C114.958 76.4325 111.168 80.2225 111.168 84.8978C111.168 89.5731 114.958 93.3632 119.633 93.3632Z" fill="#6BEFF7"/>
<path d="M116.525 84.8983C116.525 84.8983 119.237 81.5254 122.478 82.9142C125.718 84.3692 123.933 88.0067 123.933 88.0067C123.933 88.0067 122.874 91.2473 124.859 90.7844C126.843 90.2553 120.89 95.0832 115.864 92.4377C110.772 89.7923 116.525 84.8983 116.525 84.8983Z" fill="url(#paint1_linear)"/>
<path d="M86.8308 130.929C86.8308 130.929 91.9232 133.309 92.3862 133.111L114.012 123.125C115.93 122.331 117.981 121.471 118.576 123.455L121.155 130.929C121.618 132.45 122.61 138.071 121.287 138.865L102.373 150.637C100.587 151.761 98.2061 151.034 97.3463 149.05L92.32 137.278C92.2539 137.079 92.1878 136.815 92.1216 136.616C92.0555 136.352 92.0555 136.021 92.0555 135.756L85.5081 146.338C82.9949 150.438 76.6459 148.917 76.3153 144.089L79.3575 136.484C80.9447 131.987 83.1272 130.532 86.8308 130.929Z" fill="white"/>
<path d="M102.107 56.4597C102.107 56.4597 86.6316 64.925 83.391 63.7346C80.1504 62.5441 84.1846 59.3035 84.1846 59.3035C84.1846 59.3035 64.6746 68.1656 56.0109 60.1633C48.9599 53.6505 52.5582 42.7057 60.7065 38.8015C70.4284 33.0477 83.7878 40.984 98.9328 38.8015C114.078 36.619 116.26 48.7218 102.107 56.4597Z" fill="#393087"/>
<path d="M119.634 93.3634C119.634 93.3634 105.547 119.884 109.184 120.479C112.756 121.074 112.756 119.421 112.756 119.421C112.756 119.421 110.441 140.915 118.377 138.732C126.314 136.55 128.648 135.588 132.153 137.77C135.658 139.887 126.644 126.034 126.644 126.034L119.634 93.3634Z" fill="#393087"/>
<path d="M30.2364 141.127C31.0287 137.995 29.8314 133.227 28.7987 129.973C27.7959 126.915 27.3715 123.702 27.6208 120.519C27.7378 119.096 27.754 117.889 27.5387 116.919C27.1227 115.511 21.5503 116.697 23.0505 125.634C20.0743 119.733 12.5944 106.693 8.87422 105.99C3.68117 104.844 13.8441 125.368 17.989 139.788C18.0335 140.517 18.1335 141.171 18.2534 141.956C19.6412 152.783 22.9999 185.253 32.1903 213.419L50.4955 210.62C38.1168 188.294 32.484 151.889 30.2364 141.127Z" fill="#6BEFF7"/>
<path d="M17.8586 144.625C18.9418 144.46 19.6857 143.447 19.5201 142.364C19.3545 141.281 18.3421 140.537 17.2589 140.703C16.1757 140.868 15.4319 141.881 15.5975 142.964C15.7631 144.047 16.7755 144.791 17.8586 144.625Z" fill="#393087"/>
<path d="M20.4322 145.704C21.5154 145.538 22.2592 144.526 22.0936 143.443C21.928 142.36 20.9157 141.616 19.8325 141.782C18.7493 141.947 18.0055 142.959 18.1711 144.043C18.3367 145.126 19.349 145.87 20.4322 145.704Z" fill="#393087"/>
<path d="M23.0511 146.642C24.1342 146.476 24.8781 145.464 24.7125 144.38C24.5469 143.297 23.5345 142.553 22.4513 142.719C21.3682 142.885 20.6243 143.897 20.7899 144.98C20.9555 146.063 21.9679 146.807 23.0511 146.642Z" fill="#393087"/>
<path d="M25.4946 146.87C26.5778 146.704 27.3216 145.692 27.156 144.609C26.9904 143.526 25.978 142.782 24.8948 142.947C23.8117 143.113 23.0678 144.125 23.2334 145.208C23.399 146.292 24.4114 147.036 25.4946 146.87Z" fill="#393087"/>
<path d="M28.4016 146.627C29.4848 146.461 30.2286 145.449 30.063 144.365C29.8974 143.282 28.8851 142.538 27.8019 142.704C26.7187 142.87 25.9749 143.882 26.1405 144.965C26.3061 146.048 27.3184 146.792 28.4016 146.627Z" fill="#393087"/>
<path d="M30.962 145.432C32.0452 145.266 32.789 144.254 32.6234 143.171C32.4578 142.087 31.4455 141.344 30.3623 141.509C29.2791 141.675 28.5353 142.687 28.7009 143.77C28.8665 144.854 29.8788 145.597 30.962 145.432Z" fill="#393087"/>
<path d="M108.074 73.9432C106.972 77.9113 105.098 85.6492 106.421 84.8555C107.639 84.1244 108.39 82.2146 108.673 81.1427C108.13 83.4192 107.462 87.5769 108.736 87.8316C110.058 88.0962 113.034 80.4465 114.357 76.5886L108.074 73.9432Z" fill="#393087"/>
<rect width="34.3333" height="77.9459" rx="17.1667" transform="matrix(-0.993837 -0.110848 -0.110848 0.993837 150.712 138.328)" fill="#6BEFF7"/>
</g>
<defs>
<linearGradient id="paint0_linear" x1="89.2318" y1="113.626" x2="98.6912" y2="125.428" gradientUnits="userSpaceOnUse">
<stop offset="0.0286326" stop-color="#49ABDB"/>
<stop offset="0.9782" stop-color="#6BEFF7"/>
</linearGradient>
<linearGradient id="paint1_linear" x1="116.008" y1="80.453" x2="120.075" y2="90.0014" gradientUnits="userSpaceOnUse">
<stop offset="0.0286326" stop-color="#49ABDB"/>
<stop offset="0.9782" stop-color="#6BEFF7"/>
</linearGradient>
</defs>
</svg>
