<svg width="95" height="79" viewBox="0 0 95 79" fill="none" xmlns="http://www.w3.org/2000/svg">
<mask id="mask0" mask-type="alpha" maskUnits="userSpaceOnUse" x="0" y="0" width="95" height="79">
<path fill-rule="evenodd" clip-rule="evenodd" d="M95 20C95 8.9543 86.0457 0 75 0H20C8.9543 0 -7.62939e-06 8.95431 -7.62939e-06 20V59C-7.62939e-06 70.0457 8.9543 79 20 79H75C86.0457 79 95 70.0457 95 59V20Z" fill="white"/>
</mask>
<g mask="url(#mask0)">
<path d="M63.9301 54.4106C63.9301 54.4106 62.4612 59.1959 58.6553 58.6096C54.8495 58.0234 50.5233 60.369 51.3372 60.7073C52.1209 61.039 53.4685 60.8287 53.7452 61.588C54.0219 62.3472 43.5808 74.9815 58.395 79.485C74.8949 81.2232 72.3585 55.4778 72.3585 55.4778L63.9301 54.4106Z" fill="#393087"/>
<rect width="16.0881" height="36.5243" rx="8.04404" transform="matrix(-0.993837 -0.110848 -0.110848 0.993837 69.4832 67.4007)" fill="#6BEFF7"/>
<path d="M34.4312 67.7909C34.9388 67.7133 35.2874 67.2389 35.2098 66.7314C35.1322 66.2238 34.6578 65.8753 34.1502 65.9529C33.6427 66.0305 33.2941 66.5048 33.3717 67.0124C33.4493 67.52 33.9237 67.8685 34.4312 67.7909Z" fill="#393087"/>
<path d="M40.9341 68.082C41.4416 68.0044 41.7902 67.53 41.7126 67.0225C41.635 66.5149 41.1606 66.1663 40.653 66.2439C40.1455 66.3216 39.7969 66.7959 39.8745 67.3035C39.9521 67.811 40.4265 68.1596 40.9341 68.082Z" fill="#393087"/>
<path d="M61.2403 21.4739C61.2403 21.4739 69.9115 11.6543 81.6937 18.4369C93.7574 26.3473 83.894 43.198 94.7096 51.1624C105.525 59.1269 101.558 71.6159 92.3853 75.1797C83.2123 78.7126 75.6197 63.3725 75.6197 63.3725L61.2403 21.4739Z" fill="#393087"/>
<path d="M82.3135 45.0265L79.2145 39.6032V38.1467C79.1525 38.1467 79.1215 38.1777 79.0596 38.1777C79.0596 38.1777 73.0785 37.4959 71.9318 29.0666L57.7384 29.8104L57.1806 31.4528C57.1806 31.4528 54.5774 42.9501 57.7384 50.8836C61.2404 57.1784 66.4776 58.6311 68.7089 58.4762C69.2357 58.4452 68.492 60.9864 67.6552 64.2713C67.6552 64.2713 72.3967 68.238 80.3302 62.6288C80.3302 62.6288 79.1525 58.848 79.8653 56.1519C80.6091 53.4558 82.2515 45.0265 82.3135 45.0265Z" fill="#6BEFF7"/>
<path d="M63.0997 38.4875C64.0914 39.4172 66.4157 44.1277 64.7112 46.08C63.0068 48.0634 60.0007 44.9644 61.7981 43.6008C63.5956 42.2063 61.9531 37.3718 63.0997 38.4875Z" fill="#F58591"/>
<path d="M69.1497 40.5749C69.9199 40.5749 70.5442 39.3955 70.5442 37.9407C70.5442 36.4859 69.9199 35.3066 69.1497 35.3066C68.3795 35.3066 67.7551 36.4859 67.7551 37.9407C67.7551 39.3955 68.3795 40.5749 69.1497 40.5749Z" fill="#393087"/>
<path d="M60.0628 41.0597C60.7132 41.0597 61.2404 39.9913 61.2404 38.6735C61.2404 37.3556 60.7132 36.2872 60.0628 36.2872C59.4124 36.2872 58.8852 37.3556 58.8852 38.6735C58.8852 39.9913 59.4124 41.0597 60.0628 41.0597Z" fill="#393087"/>
<path d="M60.0629 36.2561C60.0629 36.2561 58.3275 35.5434 58.3894 35.9153C58.4514 36.2871 58.8853 36.69 58.8853 36.69C58.8853 36.69 58.3585 36.783 58.5754 37.0309C58.7923 37.2788 59.2262 37.5887 59.2262 37.5887L60.0629 36.2561Z" fill="#393087"/>
<path d="M69.179 35.7549C69.179 35.7549 70.9145 35.0422 70.8525 35.414C70.7905 35.7859 70.3566 36.1888 70.3566 36.1888C70.3566 36.1888 70.8835 36.2818 70.6665 36.5297C70.4496 36.7776 70.0158 37.0875 70.0158 37.0875L69.179 35.7549Z" fill="#393087"/>
<path d="M67.2451 32.4954C67.2451 32.4954 71.2588 31.308 72.2296 33.9341L72.6404 33.7415C72.6404 33.7415 71.4933 30.8557 68.6724 31.3273C65.8515 31.7989 67.0424 31.2797 67.2451 32.4954Z" fill="#393087"/>
<path d="M61.1306 32.8256C61.1306 32.8256 58.1766 31.9921 58.0706 34.4931L57.7545 34.3415C57.7545 34.3415 57.9054 31.5947 59.8992 31.8461C61.893 32.0976 61.0236 31.6807 61.1306 32.8256Z" fill="#393087"/>
<path d="M61.7981 49.5198C61.7981 49.5198 66.0437 49.9537 68.0581 48.4971C68.0581 48.4971 65.6409 53.7345 61.7981 49.5198Z" fill="#393087"/>
<path d="M67.6552 64.2712C67.6552 64.2712 63.5646 63.1555 59.7528 70.0973C55.941 77.0391 49.805 86.3671 51.5714 90.4888C53.3378 94.6105 54.0506 96.5319 55.1662 101.211L55.0113 105.054H92.3853L98.3981 71.7048C98.3981 71.7048 83.6461 62.8456 80.3302 62.5977C80.3302 62.6287 73.2335 67.7111 67.6552 64.2712Z" fill="#7E76C1"/>
<path d="M68.7091 58.4452C68.7091 58.4452 73.0787 58.4452 75.6199 54.9123V63.3416H67.9034C67.9034 63.3416 68.988 59.9947 68.7091 58.4452Z" fill="url(#paint0_linear)"/>
<path d="M82.3134 45.0263C84.5042 45.0263 86.2801 43.2503 86.2801 41.0596C86.2801 38.8688 84.5042 37.0928 82.3134 37.0928C80.1226 37.0928 78.3467 38.8688 78.3467 41.0596C78.3467 43.2503 80.1226 45.0263 82.3134 45.0263Z" fill="#6BEFF7"/>
<path d="M80.8572 41.0598C80.8572 41.0598 82.1278 39.4793 83.6463 40.1301C85.1648 40.8119 84.3281 42.5163 84.3281 42.5163C84.3281 42.5163 83.8322 44.0348 84.7619 43.8179C85.6916 43.57 82.9025 45.8323 80.5473 44.5927C78.1611 43.3531 80.8572 41.0598 80.8572 41.0598Z" fill="url(#paint1_linear)"/>
<path d="M66.9428 62.6289C66.9428 62.6289 69.329 63.7445 69.546 63.6515L79.6797 58.972C80.5784 58.6002 81.5391 58.1973 81.818 59.127L83.0266 62.6289C83.2436 63.3416 83.7084 65.9758 83.0886 66.3477L74.2255 71.8639C73.3887 72.3907 72.2731 72.0498 71.8702 71.1201L69.515 65.6039C69.484 65.5109 69.453 65.387 69.422 65.294C69.391 65.17 69.391 65.0151 69.391 64.8911L66.323 69.8495C65.1454 71.7709 62.1703 71.0582 62.0154 68.7959L63.4409 65.232C64.1847 63.1247 65.2074 62.4429 66.9428 62.6289Z" fill="white"/>
<path d="M74.101 27.7339C74.101 27.7339 66.8493 31.7006 65.3308 31.1428C63.8123 30.585 65.7027 29.0665 65.7027 29.0665C65.7027 29.0665 56.5606 33.2191 52.5009 29.4693C49.1969 26.4176 50.883 21.289 54.7012 19.4595C59.2567 16.7634 65.5167 20.4822 72.6134 19.4595C79.7102 18.4369 80.7328 24.108 74.101 27.7339Z" fill="#393087"/>
<path d="M82.3137 45.0264C82.3137 45.0264 75.7129 57.4534 77.4173 57.7324C79.0908 58.0113 79.0908 57.2365 79.0908 57.2365C79.0908 57.2365 78.0061 67.3083 81.7249 66.2856C85.4437 65.2629 86.5376 64.8121 88.1801 65.8348C89.8226 66.8265 85.5987 60.3355 85.5987 60.3355L82.3137 45.0264Z" fill="#393087"/>
<path d="M40.4234 67.4077C40.7947 65.9402 40.2336 63.7061 39.7497 62.1812C39.2798 60.7482 39.0809 59.2425 39.1978 57.7512C39.2526 57.0844 39.2602 56.5189 39.1593 56.0641C38.9644 55.4042 36.3532 55.9602 37.0562 60.1477C35.6616 57.3826 32.1566 51.2723 30.4134 50.9432C27.98 50.4061 32.7422 60.0235 34.6844 66.7803C34.7053 67.122 34.7521 67.4284 34.8084 67.796C35.4586 72.8693 37.0325 88.0843 41.3389 101.283L49.9165 99.9713C44.116 89.5093 41.4766 72.4508 40.4234 67.4077Z" fill="#6BEFF7"/>
<path d="M34.6235 69.0469C35.1311 68.9693 35.4796 68.4949 35.402 67.9874C35.3244 67.4798 34.85 67.1313 34.3425 67.2089C33.8349 67.2865 33.4864 67.7608 33.564 68.2684C33.6416 68.776 34.1159 69.1245 34.6235 69.0469Z" fill="#393087"/>
<path d="M35.8294 69.5525C36.3369 69.4749 36.6855 69.0005 36.6079 68.4929C36.5303 67.9854 36.0559 67.6368 35.5484 67.7144C35.0408 67.792 34.6922 68.2664 34.7698 68.7739C34.8474 69.2815 35.3218 69.6301 35.8294 69.5525Z" fill="#393087"/>
<path d="M37.0566 69.9917C37.5641 69.9141 37.9127 69.4398 37.8351 68.9322C37.7575 68.4246 37.2831 68.0761 36.7755 68.1537C36.268 68.2313 35.9194 68.7056 35.997 69.2132C36.0746 69.7208 36.549 70.0693 37.0566 69.9917Z" fill="#393087"/>
<path d="M38.2015 70.0987C38.7091 70.0211 39.0576 69.5467 38.98 69.0392C38.9024 68.5316 38.428 68.1831 37.9205 68.2607C37.4129 68.3383 37.0644 68.8126 37.142 69.3202C37.2196 69.8278 37.6939 70.1763 38.2015 70.0987Z" fill="#393087"/>
<path d="M39.5638 69.9847C40.0713 69.9071 40.4199 69.4327 40.3423 68.9252C40.2647 68.4176 39.7903 68.0691 39.2827 68.1467C38.7752 68.2243 38.4266 68.6986 38.5042 69.2062C38.5818 69.7138 39.0562 70.0623 39.5638 69.9847Z" fill="#393087"/>
<path d="M40.7635 69.4248C41.2711 69.3472 41.6196 68.8729 41.542 68.3653C41.4644 67.8577 40.9901 67.5092 40.4825 67.5868C39.9749 67.6644 39.6264 68.1388 39.704 68.6463C39.7816 69.1539 40.256 69.5024 40.7635 69.4248Z" fill="#393087"/>
<path d="M76.8971 35.9264C76.3806 37.7858 75.5026 41.4116 76.1224 41.0398C76.6934 40.6972 77.0452 39.8022 77.1778 39.3C76.9232 40.3667 76.6103 42.315 77.207 42.4343C77.8268 42.5583 79.2214 38.9737 79.8412 37.166L76.8971 35.9264Z" fill="#393087"/>
<rect width="16.0881" height="36.5243" rx="8.04404" transform="matrix(-0.993837 -0.110848 -0.110848 0.993837 96.8764 66.0963)" fill="#6BEFF7"/>
</g>
<defs>
<linearGradient id="paint0_linear" x1="68.0679" y1="54.5211" x2="72.5004" y2="60.0512" gradientUnits="userSpaceOnUse">
<stop offset="0.0286326" stop-color="#49ABDB"/>
<stop offset="0.9782" stop-color="#6BEFF7"/>
</linearGradient>
<linearGradient id="paint1_linear" x1="80.6149" y1="38.9768" x2="82.5206" y2="43.451" gradientUnits="userSpaceOnUse">
<stop offset="0.0286326" stop-color="#49ABDB"/>
<stop offset="0.9782" stop-color="#6BEFF7"/>
</linearGradient>
</defs>
</svg>
