<svg width="347" height="150" viewBox="0 0 347 150" fill="none" xmlns="http://www.w3.org/2000/svg">
<mask id="mask0" mask-type="alpha" maskUnits="userSpaceOnUse" x="0" y="0" width="347" height="150">
<path fill-rule="evenodd" clip-rule="evenodd" d="M0 20C0 8.9543 8.9543 0 20 0H327C338.046 0 347 8.95431 347 20V130C347 141.046 338.046 150 327 150H20C8.95432 150 0 141.046 0 130V20Z" fill="#4852AA"/>
</mask>
<g mask="url(#mask0)">
<path opacity="0.7" d="M182.173 15.9999C201.773 -10.8001 239.173 -13.8334 257.673 -13.5001H389.673V161.5H74.6728C60.0062 155.333 37.2143 111.279 69.173 88.5C116.173 54.9999 145.173 111 166.173 88.5C179.669 74.0398 160.964 44.9999 182.173 15.9999Z" fill="white" fill-opacity="0.3"/>
</g>
</svg>
