<svg width="11" height="11" viewBox="0 0 11 11" fill="none" xmlns="http://www.w3.org/2000/svg">
<path fill-rule="evenodd" clip-rule="evenodd" d="M9.88159 7.53109C9.98963 7.7949 10.059 8.07575 10.0623 8.36017C10.067 8.63781 10.0142 8.91359 9.90695 9.17147C9.7404 9.57111 9.45099 9.91255 9.07727 10.1503C8.65474 10.4194 8.13312 10.5392 7.62968 10.4887C7.16615 10.4467 6.72544 10.2699 6.33892 10.0257C5.9387 9.77498 5.592 9.45508 5.26804 9.11985C4.91965 9.47878 4.54548 9.82165 4.10798 10.0794C3.7158 10.3128 3.26883 10.4727 2.80529 10.4963C2.45826 10.5154 2.11139 10.4564 1.79225 10.3242C1.384 10.1553 1.03375 9.8628 0.800416 9.49989C0.529717 9.0821 0.418547 8.57146 0.49607 8.08492C0.537918 7.79676 0.649089 7.52379 0.772011 7.25982C1.06841 6.6262 1.37656 5.9977 1.68733 5.37025C2.20868 4.32177 2.74653 3.28094 3.3007 2.2481C3.32145 2.20956 3.34213 2.17098 3.36282 2.13239C3.45578 1.95901 3.5488 1.78549 3.64783 1.61513C3.76517 1.41431 3.9006 1.22023 4.0756 1.06106C4.37048 0.785075 4.77162 0.619487 5.18257 0.600006H5.36637C5.76557 0.62387 6.15454 0.782072 6.44443 1.04742C6.6261 1.20911 6.76644 1.40798 6.887 1.61456C6.9832 1.78065 7.07389 1.94958 7.16458 2.1185C7.18953 2.16497 7.21447 2.21143 7.23953 2.25784C8.06541 3.79727 8.85474 5.35453 9.60692 6.9284C9.62027 6.9566 9.63367 6.98479 9.64708 7.01298C9.72852 7.18431 9.81001 7.35572 9.88159 7.53109ZM4.93857 7.74637C5.04441 7.89164 5.15055 8.0373 5.27016 8.1725C5.64154 7.71259 5.98495 7.22248 6.20188 6.67572C6.31677 6.38107 6.39159 6.06377 6.35397 5.74785C6.32522 5.51019 6.21101 5.27893 6.01978 5.12251C5.64197 4.80911 5.04765 4.78119 4.63069 5.03956C4.4557 5.14662 4.31756 5.30864 4.2457 5.49566C4.16538 5.69509 4.15921 5.91425 4.185 6.12432C4.22033 6.3891 4.31088 6.64406 4.42365 6.88692C4.56129 7.17962 4.7324 7.45666 4.92058 7.72168C4.92658 7.72991 4.93258 7.73814 4.93857 7.74637ZM8.63166 9.72051C8.98208 9.53439 9.2499 9.21181 9.36133 8.84257C9.4435 8.57227 9.44088 8.27973 9.36167 8.00886C9.30622 7.82106 9.22285 7.64287 9.13965 7.46506C9.12554 7.43491 9.11144 7.40477 9.09748 7.3746C8.46026 6.03489 7.79559 4.70738 7.10384 3.39285L7.08496 3.35703C6.84888 2.9092 6.61262 2.46105 6.3669 2.0179C6.25531 1.81789 6.13103 1.61724 5.94707 1.47056C5.76083 1.32032 5.51879 1.23419 5.27532 1.23695C5.03839 1.23278 4.80715 1.30679 4.62021 1.44662C4.44733 1.57276 4.325 1.74914 4.21983 1.92877C4.11338 2.11299 4.01305 2.30048 3.91274 2.48794C3.89163 2.52738 3.87053 2.56682 3.84937 2.60622C3.03313 4.12946 2.25265 5.67011 1.50853 7.22703C1.48799 7.27088 1.46717 7.31464 1.44635 7.35843C1.35853 7.54312 1.27059 7.72805 1.20232 7.92031C1.10079 8.20773 1.08185 8.52454 1.16724 8.81797C1.27892 9.21741 1.57498 9.56491 1.96057 9.74941C2.28977 9.90931 2.67705 9.94779 3.03601 9.87043C3.48001 9.77822 3.87194 9.53593 4.2145 9.25759C4.43543 9.07626 4.6419 8.87927 4.83215 8.66829C4.41021 8.1682 4.02817 7.62907 3.76787 7.03344C3.59279 6.6258 3.47705 6.18342 3.5167 5.73998C3.54249 5.4321 3.65366 5.12852 3.84869 4.8816C4.07028 4.59839 4.39364 4.39409 4.7477 4.2979C5.12314 4.19514 5.53223 4.20642 5.90024 4.33264C6.2942 4.46576 6.63786 4.74093 6.82968 5.09914C6.97619 5.36724 7.0352 5.67391 7.02632 5.97505C7.01059 6.44966 6.84498 6.90697 6.62703 7.32906C6.3773 7.81105 6.05038 8.25197 5.70334 8.67341C5.92315 8.90499 6.15259 9.12967 6.4074 9.32626C6.7541 9.59445 7.15423 9.82165 7.60018 9.88829C7.95035 9.94446 8.32106 9.88732 8.63166 9.72051Z" fill="#FF5A5F"/>
</svg>
