<svg width="7" height="9" viewBox="0 0 7 9" fill="none" xmlns="http://www.w3.org/2000/svg">
<path d="M6.15095 3.0556H5.74755V2.27782C5.74755 1.20449 4.84394 0.333374 3.73056 0.333374C2.61717 0.333374 1.71356 1.20449 1.71356 2.27782V3.0556H1.31016C0.866417 3.0556 0.503357 3.4056 0.503357 3.83337V7.72226C0.503357 8.15004 0.866417 8.50004 1.31016 8.50004H6.15095C6.59469 8.50004 6.95775 8.15004 6.95775 7.72226V3.83337C6.95775 3.4056 6.59469 3.0556 6.15095 3.0556ZM3.73056 6.5556C3.28682 6.5556 2.92376 6.2056 2.92376 5.77782C2.92376 5.35004 3.28682 5.00004 3.73056 5.00004C4.1743 5.00004 4.53735 5.35004 4.53735 5.77782C4.53735 6.2056 4.1743 6.5556 3.73056 6.5556ZM4.98109 3.0556H2.48002V2.27782C2.48002 1.61282 3.04074 1.07226 3.73056 1.07226C4.42037 1.07226 4.98109 1.61282 4.98109 2.27782V3.0556Z" fill="#55586F"/>
</svg>
