<svg width="7" height="9" viewBox="0 0 7 9" fill="none" xmlns="http://www.w3.org/2000/svg">
<path d="M5.91823 3.05547H5.53435V2.2777C5.53435 1.20436 4.67445 0.333252 3.61492 0.333252C2.5554 0.333252 1.6955 1.20436 1.6955 2.2777V3.05547H1.31162C0.889342 3.05547 0.543846 3.40547 0.543846 3.83325V7.72214C0.543846 8.14992 0.889342 8.49992 1.31162 8.49992H5.91823C6.34051 8.49992 6.686 8.14992 6.686 7.72214V3.83325C6.686 3.40547 6.34051 3.05547 5.91823 3.05547ZM3.61492 6.55547C3.19265 6.55547 2.84715 6.20547 2.84715 5.7777C2.84715 5.34992 3.19265 4.99992 3.61492 4.99992C4.0372 4.99992 4.38269 5.34992 4.38269 5.7777C4.38269 6.20547 4.0372 6.55547 3.61492 6.55547ZM4.80497 3.05547H2.42488V2.2777C2.42488 1.6127 2.95848 1.07214 3.61492 1.07214C4.27137 1.07214 4.80497 1.6127 4.80497 2.2777V3.05547Z" fill="#55586F"/>
</svg>
