<svg width="8" height="11" viewBox="0 0 8 11" fill="none" xmlns="http://www.w3.org/2000/svg">
<path d="M6.07829 5.44217C6.00862 5.40734 5.93894 5.3725 5.86927 5.30283C5.90411 5.268 5.97378 5.23316 6.00862 5.19832C6.1828 5.05898 6.32214 4.91963 6.46148 4.74545C6.84468 4.22291 6.98402 3.66554 6.94919 3.03849C6.91435 2.13276 6.49632 1.47087 5.69509 1.01801C5.13772 0.704482 4.54551 0.599976 3.91846 0.599976C3.0824 0.599976 2.28117 0.599976 1.4451 0.599976C1.09674 0.599976 0.852894 0.739318 0.609042 1.01801C0.504534 1.15735 0.43486 1.33153 0.400024 1.50571C0.400024 4.53644 0.400024 7.60201 0.400024 10.6327C0.43486 10.6327 0.469697 10.6327 0.504533 10.6327C1.65412 10.6327 2.80371 10.6327 3.91846 10.6327C4.40616 10.6327 4.89386 10.5631 5.34673 10.3889C6.04345 10.145 6.60083 9.76184 6.94919 9.09995C7.29755 8.4729 7.40206 7.77619 7.22788 7.04463C7.12337 6.34791 6.74017 5.79053 6.07829 5.44217ZM2.316 3.70038C2.35084 3.70038 2.35084 3.70038 2.316 3.70038C2.316 3.42169 2.316 3.143 2.316 2.86431C2.316 2.48112 2.52502 2.2721 2.90821 2.23727C3.29141 2.20243 3.67461 2.20243 4.0578 2.2721C4.54551 2.34178 4.85903 2.6553 4.9287 3.10816C4.99837 3.5262 4.96354 3.90939 4.68485 4.25775C4.47583 4.53644 4.16231 4.64095 3.84878 4.64095C3.36108 4.64095 2.87338 4.64095 2.38567 4.64095C2.316 4.64095 2.316 4.60611 2.316 4.57127C2.35084 4.29259 2.316 3.97906 2.316 3.70038ZM5.06804 8.47291C4.82419 8.78643 4.47584 8.92577 4.09264 8.92577C3.53526 8.92577 2.94305 8.92577 2.38567 8.92577C2.316 8.92577 2.316 8.89094 2.316 8.8561C2.316 8.50774 2.316 8.15938 2.316 7.81102C2.316 7.4975 2.316 7.14914 2.316 6.83561C2.316 6.41758 2.55986 6.20857 2.94305 6.20857C3.29141 6.20857 3.6746 6.20857 4.02296 6.20857C4.47583 6.20857 4.85903 6.38275 5.13772 6.80078C5.45124 7.25365 5.4164 8.02004 5.06804 8.47291Z" fill="#004582"/>
</svg>
