<svg width="7" height="9" viewBox="0 0 7 9" fill="none" xmlns="http://www.w3.org/2000/svg">
<path fill-rule="evenodd" clip-rule="evenodd" d="M5.30574 4.09339C5.2496 4.06672 5.19346 4.04005 5.13732 3.98672C5.16539 3.96005 5.22153 3.93339 5.2496 3.90672C5.38995 3.80005 5.50223 3.69339 5.61451 3.56005C5.92328 3.16005 6.03556 2.73339 6.00749 2.25339C5.97942 1.56005 5.64258 1.05339 4.99697 0.706719C4.54784 0.466719 4.07065 0.386719 3.56539 0.386719C2.8917 0.386719 2.24609 0.386719 1.57241 0.386719C1.2917 0.386719 1.09521 0.493385 0.898722 0.706719C0.814511 0.786719 0.758371 0.920052 0.730301 1.05339C0.730301 3.37339 0.730301 5.72005 0.730301 8.04005C0.758371 8.04005 0.786441 8.04005 0.814511 8.04005C1.74083 8.04005 2.63907 8.04005 3.56539 8.04005C3.95837 8.04005 4.35135 7.98672 4.71627 7.85339C5.27767 7.66672 5.72679 7.37339 6.00749 6.86672C6.2882 6.38672 6.37241 5.85339 6.23206 5.29339C6.14784 4.78672 5.83907 4.36005 5.30574 4.09339V4.09339ZM2.27433 2.76007C2.27433 2.76007 2.3024 2.76007 2.27433 2.76007C2.27433 2.54674 2.27433 2.33341 2.27433 2.12007C2.27433 1.82674 2.44275 1.66674 2.75152 1.64007C3.06029 1.61341 3.36906 1.61341 3.67784 1.66674C4.07082 1.72007 4.32345 1.96007 4.37959 2.30674C4.43573 2.62674 4.40766 2.92007 4.1831 3.18674C4.01468 3.40007 3.76205 3.48007 3.50942 3.48007C3.11643 3.48007 2.72345 3.48007 2.33047 3.48007C2.27433 3.48007 2.27433 3.45341 2.27433 3.42674C2.3024 3.18674 2.27433 2.97341 2.27433 2.76007V2.76007ZM4.49187 6.38665C4.29538 6.62665 4.01468 6.73332 3.70591 6.73332C3.25678 6.73332 2.77959 6.73332 2.33047 6.73332C2.27433 6.73332 2.27433 6.70665 2.27433 6.67999C2.27433 6.41332 2.27433 6.14665 2.27433 5.87999V5.87999C2.27433 5.63999 2.27433 5.37332 2.27433 5.13332C2.27433 4.81332 2.47082 4.65332 2.77959 4.65332C3.06029 4.65332 3.36906 4.65332 3.64977 4.65332C4.01468 4.65332 4.32345 4.78665 4.54801 5.10665C4.80064 5.47999 4.77257 6.06665 4.49187 6.38665V6.38665Z" fill="#2E3C82"/>
</svg>
