<svg width="7" height="9" viewBox="0 0 7 9" fill="none" xmlns="http://www.w3.org/2000/svg">
<path fill-rule="evenodd" clip-rule="evenodd" d="M5.58391 4.09339C5.52744 4.06672 5.47097 4.04005 5.4145 3.98672C5.44273 3.96005 5.4992 3.93339 5.52744 3.90672C5.66862 3.80005 5.78156 3.69339 5.8945 3.56005C6.20508 3.16005 6.31803 2.73339 6.28979 2.25339C6.26156 1.56005 5.92273 1.05339 5.27332 0.706719C4.82156 0.466719 4.34156 0.386719 3.83333 0.386719C3.15568 0.386719 2.50627 0.386719 1.82862 0.386719C1.54627 0.386719 1.34863 0.493385 1.15098 0.706719C1.06627 0.786719 1.0098 0.920052 0.981567 1.05339C0.981567 3.37339 0.981567 5.72005 0.981567 8.04005C1.0098 8.04005 1.03804 8.04005 1.06627 8.04005C1.99804 8.04005 2.90156 8.04005 3.83333 8.04005C4.22862 8.04005 4.62391 7.98672 4.99097 7.85339C5.55567 7.66672 6.00744 7.37339 6.28979 6.86672C6.57214 6.38672 6.65685 5.85339 6.51567 5.29339C6.43097 4.78672 6.12038 4.36005 5.58391 4.09339ZM2.53463 2.76007C2.53463 2.76007 2.56286 2.76007 2.53463 2.76007C2.53463 2.54674 2.53463 2.33341 2.53463 2.12007C2.53463 1.82674 2.70404 1.66674 3.01463 1.64007C3.32521 1.61341 3.6358 1.61341 3.94639 1.66674C4.34168 1.72007 4.5958 1.96007 4.65227 2.30674C4.70874 2.62674 4.6805 2.92007 4.45462 3.18674C4.28521 3.40007 4.03109 3.48007 3.77698 3.48007C3.38168 3.48007 2.98639 3.48007 2.5911 3.48007C2.53463 3.48007 2.53463 3.45341 2.53463 3.42674C2.56286 3.18674 2.53463 2.97341 2.53463 2.76007ZM4.76521 6.38665C4.56756 6.62665 4.28521 6.73332 3.97462 6.73332C3.52286 6.73332 3.04286 6.73332 2.5911 6.73332C2.53463 6.73332 2.53463 6.70665 2.53463 6.67999C2.53463 6.41332 2.53463 6.14665 2.53463 5.87999C2.53463 5.63999 2.53463 5.37332 2.53463 5.13332C2.53463 4.81332 2.73227 4.65332 3.04286 4.65332C3.32521 4.65332 3.6358 4.65332 3.91815 4.65332C4.28521 4.65332 4.5958 4.78665 4.82168 5.10665C5.0758 5.47999 5.04756 6.06665 4.76521 6.38665Z" fill="#2E3C82"/>
</svg>
