<svg width="6" height="9" viewBox="0 0 6 9" fill="none" xmlns="http://www.w3.org/2000/svg">
<path fill-rule="evenodd" clip-rule="evenodd" d="M4.54815 4.09339C4.4941 4.06672 4.44004 4.04005 4.38599 3.98672C4.41301 3.96005 4.46707 3.93339 4.4941 3.90672C4.62923 3.80005 4.73734 3.69339 4.84545 3.56005C5.14275 3.16005 5.25086 2.73339 5.22383 2.25339C5.19681 1.56005 4.87248 1.05339 4.25085 0.706719C3.81841 0.466719 3.35895 0.386719 2.87246 0.386719C2.2238 0.386719 1.60217 0.386719 0.953519 0.386719C0.683246 0.386719 0.494055 0.493385 0.304864 0.706719C0.223782 0.786719 0.169728 0.920052 0.1427 1.05339C0.1427 3.37339 0.1427 5.72005 0.1427 8.04005C0.169728 8.04005 0.196755 8.04005 0.223782 8.04005C1.11568 8.04005 1.98056 8.04005 2.87246 8.04005C3.25084 8.04005 3.62922 7.98672 3.98058 7.85339C4.52112 7.66672 4.95356 7.37339 5.22383 6.86672C5.49411 6.38672 5.57519 5.85339 5.44005 5.29339C5.35897 4.78672 5.06167 4.36005 4.54815 4.09339ZM1.62939 2.76007C1.62939 2.76007 1.65641 2.76007 1.62939 2.76007C1.62939 2.54674 1.62939 2.33341 1.62939 2.12007C1.62939 1.82674 1.79155 1.66674 2.08885 1.64007C2.38615 1.61341 2.68345 1.61341 2.98075 1.66674C3.35913 1.72007 3.60238 1.96007 3.65643 2.30674C3.71049 2.62674 3.68346 2.92007 3.46724 3.18674C3.30508 3.40007 3.06183 3.48007 2.81859 3.48007C2.4402 3.48007 2.06182 3.48007 1.68344 3.48007C1.62939 3.48007 1.62939 3.45341 1.62939 3.42674C1.65641 3.18674 1.62939 2.97341 1.62939 2.76007ZM3.76454 6.38665C3.57535 6.62665 3.30508 6.73332 3.00778 6.73332C2.57534 6.73332 2.11588 6.73332 1.68344 6.73332C1.62939 6.73332 1.62939 6.70665 1.62939 6.67999C1.62939 6.41332 1.62939 6.14665 1.62939 5.87999C1.62939 5.63999 1.62939 5.37332 1.62939 5.13332C1.62939 4.81332 1.81858 4.65332 2.11588 4.65332C2.38615 4.65332 2.68345 4.65332 2.95372 4.65332C3.30508 4.65332 3.60238 4.78665 3.8186 5.10665C4.06184 5.47999 4.03482 6.06665 3.76454 6.38665Z" fill="#2E3C82"/>
</svg>
